<svg width="32" height="20" viewBox="0 0 32 20" fill="none" xmlns="http://www.w3.org/2000/svg">
<path d="M16 0.333374C17.2377 0.333374 18.4247 0.82504 19.2998 1.70021C20.175 2.57538 20.6667 3.76236 20.6667 5.00004C20.6667 6.23772 20.175 7.4247 19.2998 8.29987C18.4247 9.17504 17.2377 9.66671 16 9.66671C14.7623 9.66671 13.5753 9.17504 12.7002 8.29987C11.825 7.4247 11.3333 6.23772 11.3333 5.00004C11.3333 3.76236 11.825 2.57538 12.7002 1.70021C13.5753 0.82504 14.7623 0.333374 16 0.333374ZM6.66667 3.66671C7.41333 3.66671 8.10667 3.86671 8.70667 4.22671C8.50667 6.13337 9.06667 8.02671 10.2133 9.50671C9.54667 10.7867 8.21333 11.6667 6.66667 11.6667C5.6058 11.6667 4.58839 11.2453 3.83824 10.4951C3.08809 9.74499 2.66667 8.72757 2.66667 7.66671C2.66667 6.60584 3.08809 5.58843 3.83824 4.83828C4.58839 4.08813 5.6058 3.66671 6.66667 3.66671ZM25.3333 3.66671C26.3942 3.66671 27.4116 4.08813 28.1618 4.83828C28.9119 5.58843 29.3333 6.60584 29.3333 7.66671C29.3333 8.72757 28.9119 9.74499 28.1618 10.4951C27.4116 11.2453 26.3942 11.6667 25.3333 11.6667C23.7867 11.6667 22.4533 10.7867 21.7867 9.50671C22.9333 8.02671 23.4933 6.13337 23.2933 4.22671C23.8933 3.86671 24.5867 3.66671 25.3333 3.66671ZM7.33333 17.3334C7.33333 14.5734 11.2133 12.3334 16 12.3334C20.7867 12.3334 24.6667 14.5734 24.6667 17.3334V19.6667H7.33333V17.3334ZM0 19.6667V17.6667C0 15.8134 2.52 14.2534 5.93333 13.8C5.14667 14.7067 4.66667 15.96 4.66667 17.3334V19.6667H0ZM32 19.6667H27.3333V17.3334C27.3333 15.96 26.8533 14.7067 26.0667 13.8C29.48 14.2534 32 15.8134 32 17.6667V19.6667Z" fill="white"/>
</svg>
