<svg width="28" height="32" viewBox="0 0 28 32" fill="none" xmlns="http://www.w3.org/2000/svg">
<path d="M19.3334 0H8.66675C7.20008 0 6.00008 1.2 6.00008 2.66667V24C6.00008 25.4667 7.20008 26.6667 8.66675 26.6667H24.6667C26.1334 26.6667 27.3334 25.4667 27.3334 24V8L19.3334 0ZM24.6667 24H8.66675V2.66667H18.0001V9.33333H24.6667V24ZM3.33341 5.33333V29.3333H24.6667V32H3.33341C1.86675 32 0.666748 30.8 0.666748 29.3333V5.33333H3.33341ZM11.3334 13.3333V16H22.0001V13.3333H11.3334ZM11.3334 18.6667V21.3333H18.0001V18.6667H11.3334Z" fill="white"/>
</svg>
