<svg width="28" height="22" viewBox="0 0 28 22" fill="none" xmlns="http://www.w3.org/2000/svg">
<path d="M6.66675 8.33331C7.73341 8.33331 8.66675 7.39998 8.66675 6.33331C8.66675 5.26665 7.73341 4.33331 6.66675 4.33331C5.60008 4.33331 4.66675 5.26665 4.66675 6.33331C4.66675 7.39998 5.60008 8.33331 6.66675 8.33331ZM10.0001 2.99998L19.3334 12.3333L12.6667 19L3.33341 9.66665V2.99998H10.0001ZM10.0001 0.333313H3.33341C1.86675 0.333313 0.666748 1.53331 0.666748 2.99998V9.66665C0.666748 10.4666 0.933415 11.1333 1.46675 11.5333L10.8001 20.8666C11.2001 21.4 11.8667 21.6666 12.6667 21.6666C13.4667 21.6666 14.1334 21.4 14.5334 20.8666L21.2001 14.2C21.7334 13.6666 22.0001 13 22.0001 12.3333C22.0001 11.5333 21.7334 10.8666 21.2001 10.4666L11.8667 1.13331C11.4667 0.599979 10.8001 0.333313 10.0001 0.333313ZM16.0001 2.59998L17.3334 1.26665L26.5334 10.4666C27.0667 11 27.3334 11.6666 27.3334 12.3333C27.3334 13 27.0667 13.8 26.5334 14.2L19.3334 21.4L18.0001 20.0666L25.6001 12.3333L16.0001 2.59998Z" fill="white"/>
</svg>
