<svg width="32" height="28" viewBox="0 0 32 28" fill="none" xmlns="http://www.w3.org/2000/svg">
<path d="M16.0001 26.1333L14.0001 27.8667C5.20008 20 0.666748 15.8667 0.666748 10.8C0.666748 9.2 1.20008 7.73333 2.00008 6.53333C2.00008 6.8 2.00008 7.06667 2.00008 7.33333C2.00008 13.6 7.20008 18.2667 16.0001 26.1333ZM18.1334 20.6667C24.4001 14.9333 28.6667 11.2 28.8001 7.33333C28.8001 4.66667 26.8001 2.66667 24.1334 2.66667C22.0001 2.66667 20.0001 4 19.3334 5.86667H16.8001C16.0001 4 14.0001 2.66667 12.0001 2.66667C9.33341 2.66667 7.33341 4.66667 7.33341 7.33333C7.33341 11.2 11.4667 14.9333 17.8667 20.6667L18.0001 20.8M24.0001 0C28.1334 0 31.3334 3.2 31.3334 7.33333C31.3334 12.2667 26.8001 16.4 18.0001 24.4C9.20008 16.5333 4.66675 12.4 4.66675 7.33333C4.66675 3.2 7.86675 0 12.0001 0C14.2667 0 16.5334 1.06667 18.0001 2.8C19.4667 1.06667 21.7334 0 24.0001 0Z" fill="white"/>
</svg>
