<svg width="24" height="24" viewBox="0 0 24 24" fill="none" xmlns="http://www.w3.org/2000/svg">
<path d="M20.6667 0.666626L23.3334 3.33329L3.33341 23.3333L0.666748 20.6666L20.6667 0.666626ZM5.33341 1.33329C7.54675 1.33329 9.33341 3.11996 9.33341 5.33329C9.33341 7.54663 7.54675 9.33329 5.33341 9.33329C3.12008 9.33329 1.33341 7.54663 1.33341 5.33329C1.33341 3.11996 3.12008 1.33329 5.33341 1.33329ZM18.6667 14.6666C20.8801 14.6666 22.6667 16.4533 22.6667 18.6666C22.6667 20.88 20.8801 22.6666 18.6667 22.6666C16.4534 22.6666 14.6667 20.88 14.6667 18.6666C14.6667 16.4533 16.4534 14.6666 18.6667 14.6666ZM5.33341 3.99996C4.60008 3.99996 4.00008 4.59996 4.00008 5.33329C4.00008 6.06663 4.60008 6.66663 5.33341 6.66663C6.06675 6.66663 6.66675 6.06663 6.66675 5.33329C6.66675 4.59996 6.06675 3.99996 5.33341 3.99996ZM18.6667 17.3333C17.9334 17.3333 17.3334 17.9333 17.3334 18.6666C17.3334 19.4 17.9334 20 18.6667 20C19.4001 20 20.0001 19.4 20.0001 18.6666C20.0001 17.9333 19.4001 17.3333 18.6667 17.3333Z" fill="white"/>
</svg>
