<svg width="28" height="28" viewBox="0 0 28 28" fill="none" xmlns="http://www.w3.org/2000/svg">
<path d="M27.3334 22V27.3333H22.0001V23.3333H18.0001V19.3333H14.0001L10.9867 16.32C10.2534 16.5466 9.48008 16.6666 8.66675 16.6666C6.54502 16.6666 4.51018 15.8238 3.00989 14.3235C1.5096 12.8232 0.666748 10.7884 0.666748 8.66663C0.666748 6.54489 1.5096 4.51006 3.00989 3.00977C4.51018 1.50948 6.54502 0.666626 8.66675 0.666626C10.7885 0.666626 12.8233 1.50948 14.3236 3.00977C15.8239 4.51006 16.6667 6.54489 16.6667 8.66663C16.6667 9.47996 16.5467 10.2533 16.3201 10.9866L27.3334 22ZM7.33341 4.66663C6.62617 4.66663 5.94789 4.94758 5.4478 5.44767C4.9477 5.94777 4.66675 6.62605 4.66675 7.33329C4.66675 8.04054 4.9477 8.71881 5.4478 9.21891C5.94789 9.71901 6.62617 9.99996 7.33341 9.99996C8.04066 9.99996 8.71894 9.71901 9.21903 9.21891C9.71913 8.71881 10.0001 8.04054 10.0001 7.33329C10.0001 6.62605 9.71913 5.94777 9.21903 5.44767C8.71894 4.94758 8.04066 4.66663 7.33341 4.66663Z" fill="white"/>
</svg>
