<svg width="93" height="79" viewBox="0 0 93 79" fill="none" xmlns="http://www.w3.org/2000/svg">
<path d="M45.6163 67.8781C45.6077 67.9385 45.564 67.9221 45.5265 67.874L0.479591 10.1149C0.202866 9.76005 0.222484 9.2583 0.528452 8.92836C2.2963 7.02205 7.92507 1.00139 8.5 0.999969H91.611C92.2091 0.998489 92.6254 1.54763 92.5177 2.09473C92.4858 2.25668 92.3627 2.37961 92.2238 2.46886L45.795 32.3105C45.6562 32.3997 45.5611 32.5146 45.5478 32.6792C45.3042 35.707 45.863 66.1362 45.6163 67.8781Z" fill="#00816D"/>
<path d="M45.6163 67.8781C45.6077 67.9385 45.564 67.9221 45.5265 67.874L0.479591 10.1149C0.202866 9.76005 0.222484 9.2583 0.528452 8.92836C2.2963 7.02205 7.92507 1.00139 8.5 0.999969H91.611C92.2091 0.998489 92.6254 1.54763 92.5177 2.09473C92.4858 2.25668 92.3627 2.37961 92.2238 2.46886L45.795 32.3105C45.6562 32.3997 45.5611 32.5146 45.5478 32.6792C45.3042 35.707 45.863 66.1362 45.6163 67.8781Z" stroke="#00816D" stroke-width="0.460106"/>
<path d="M66.8535 11H12.5V12.3937C12.5 19.5776 18.3237 25.4013 25.5077 25.4013H38.9799V77.8966H40.3736C47.5575 77.8966 53.3812 72.0728 53.3812 64.8889V25.4013H79.8611V24.0077C79.8611 16.8237 74.0374 11 66.8535 11Z" fill="#002721" stroke="#00816D"/>
<path d="M54.125 15H33V15.5417C33 18.3338 35.2634 20.5972 38.0556 20.5972H43.2917V41H43.8333C46.6254 41 48.8889 38.7366 48.8889 35.9444V20.5972H59.1806V20.0556C59.1806 17.2634 56.9171 15 54.125 15Z" fill="#00816D"/>
</svg>
